<svg xmlns="http://www.w3.org/2000/svg" viewBox="0 0 192 192" width="192" height="192">
  <defs>
    <linearGradient id="grad1" x1="0%" y1="0%" x2="100%" y2="100%">
      <stop offset="0%" style="stop-color:#4F46E5;stop-opacity:1" />
      <stop offset="100%" style="stop-color:#7C3AED;stop-opacity:1" />
    </linearGradient>
    <linearGradient id="grad2" x1="0%" y1="0%" x2="100%" y2="100%">
      <stop offset="0%" style="stop-color:#F8FAFC;stop-opacity:1" />
      <stop offset="100%" style="stop-color:#F1F5F9;stop-opacity:1" />
    </linearGradient>
  </defs>
  
  <!-- Background Circle -->
  <circle cx="96" cy="96" r="90" fill="url(#grad2)" stroke="#E2E8F0" stroke-width="4"/>
  
  <!-- Document Base -->
  <rect x="36" y="24" width="108" height="132" rx="8" ry="8" fill="#FFFFFF" stroke="#CBD5E1" stroke-width="2"/>
  
  <!-- Document Corner Fold -->
  <path d="M 120 24 L 144 24 L 144 48 Z" fill="#E2E8F0" stroke="#CBD5E1" stroke-width="1"/>
  <line x1="120" y1="24" x2="120" y2="48" stroke="#CBD5E1" stroke-width="1"/>
  <line x1="120" y1="48" x2="144" y2="48" stroke="#CBD5E1" stroke-width="1"/>
  
  <!-- Document Lines -->
  <line x1="48" y1="48" x2="132" y2="48" stroke="#E2E8F0" stroke-width="2"/>
  <line x1="48" y1="60" x2="132" y2="60" stroke="#E2E8F0" stroke-width="2"/>
  <line x1="48" y1="72" x2="132" y2="72" stroke="#E2E8F0" stroke-width="2"/>
  <line x1="48" y1="84" x2="132" y2="84" stroke="#E2E8F0" stroke-width="2"/>
  <line x1="48" y1="96" x2="120" y2="96" stroke="#E2E8F0" stroke-width="2"/>
  
  <!-- AI Brain Circle -->
  <circle cx="96" cy="120" r="24" fill="url(#grad1)" opacity="0.9"/>
  
  <!-- AI Neural Network -->
  <circle cx="84" cy="108" r="4" fill="#FFFFFF"/>
  <circle cx="108" cy="108" r="4" fill="#FFFFFF"/>
  <circle cx="96" cy="132" r="4" fill="#FFFFFF"/>
  <circle cx="78" cy="126" r="3" fill="#FFFFFF" opacity="0.8"/>
  <circle cx="114" cy="126" r="3" fill="#FFFFFF" opacity="0.8"/>
  
  <!-- AI Connections -->
  <line x1="84" y1="108" x2="108" y2="108" stroke="#FFFFFF" stroke-width="2" opacity="0.8"/>
  <line x1="84" y1="108" x2="96" y2="132" stroke="#FFFFFF" stroke-width="2" opacity="0.8"/>
  <line x1="108" y1="108" x2="96" y2="132" stroke="#FFFFFF" stroke-width="2" opacity="0.8"/>
  <line x1="84" y1="108" x2="78" y2="126" stroke="#FFFFFF" stroke-width="1.5" opacity="0.6"/>
  <line x1="108" y1="108" x2="114" y2="126" stroke="#FFFFFF" stroke-width="1.5" opacity="0.6"/>
  <line x1="78" y1="126" x2="96" y2="132" stroke="#FFFFFF" stroke-width="1.5" opacity="0.6"/>
  <line x1="114" y1="126" x2="96" y2="132" stroke="#FFFFFF" stroke-width="1.5" opacity="0.6"/>
  
  <!-- Highlight Effect -->
  <ellipse cx="84" cy="72" rx="30" ry="12" fill="#FFFFFF" opacity="0.3"/>
</svg>