<svg xmlns="http://www.w3.org/2000/svg" viewBox="0 0 32 32" width="32" height="32">
  <defs>
    <linearGradient id="grad1" x1="0%" y1="0%" x2="100%" y2="100%">
      <stop offset="0%" style="stop-color:#4F46E5;stop-opacity:1" />
      <stop offset="100%" style="stop-color:#7C3AED;stop-opacity:1" />
    </linearGradient>
  </defs>
  
  <!-- Notebook/Document Base -->
  <rect x="6" y="4" width="18" height="22" rx="2" ry="2" fill="#F8FAFC" stroke="#E2E8F0" stroke-width="1"/>
  
  <!-- Notebook Lines -->
  <line x1="8" y1="8" x2="22" y2="8" stroke="#E2E8F0" stroke-width="0.5"/>
  <line x1="8" y1="11" x2="22" y2="11" stroke="#E2E8F0" stroke-width="0.5"/>
  <line x1="8" y1="14" x2="22" y2="14" stroke="#E2E8F0" stroke-width="0.5"/>
  <line x1="8" y1="17" x2="22" y2="17" stroke="#E2E8F0" stroke-width="0.5"/>
  
  <!-- AI Brain/Circuit Pattern -->
  <circle cx="16" cy="20" r="4" fill="url(#grad1)" opacity="0.8"/>
  
  <!-- AI Nodes -->
  <circle cx="14" cy="18" r="1" fill="#FFFFFF"/>
  <circle cx="18" cy="18" r="1" fill="#FFFFFF"/>
  <circle cx="16" cy="22" r="1" fill="#FFFFFF"/>
  
  <!-- AI Connections -->
  <line x1="14" y1="18" x2="18" y2="18" stroke="#FFFFFF" stroke-width="1" opacity="0.7"/>
  <line x1="14" y1="18" x2="16" y2="22" stroke="#FFFFFF" stroke-width="1" opacity="0.7"/>
  <line x1="18" y1="18" x2="16" y2="22" stroke="#FFFFFF" stroke-width="1" opacity="0.7"/>
  
  <!-- Document Corner Fold -->
  <path d="M 20 4 L 24 4 L 24 8 Z" fill="#E2E8F0" stroke="#CBD5E1" stroke-width="0.5"/>
  <line x1="20" y1="4" x2="20" y2="8" stroke="#CBD5E1" stroke-width="0.5"/>
  <line x1="20" y1="8" x2="24" y2="8" stroke="#CBD5E1" stroke-width="0.5"/>
</svg>